<svg width="19" height="19" viewBox="0 0 19 19" fill="none" xmlns="http://www.w3.org/2000/svg">
<path d="M9.89954 0.99707C9.34891 0.99707 8.90252 1.44345 8.90252 1.99409V8.90252H1.99409C1.44345 8.90252 0.99707 9.34891 0.99707 9.89954C0.99707 10.4502 1.44345 10.8966 1.99409 10.8966H8.90252V17.805C8.90252 18.3556 9.34891 18.802 9.89954 18.802C10.4502 18.802 10.8966 18.3556 10.8966 17.805V10.8966H17.805C18.3556 10.8966 18.802 10.4502 18.802 9.89954C18.802 9.34891 18.3556 8.90252 17.805 8.90252H10.8966V1.99409C10.8966 1.44345 10.4502 0.99707 9.89954 0.99707Z" fill="#2049B9"/>
</svg>