<svg width="111" height="60" viewBox="0 0 111 60" fill="none" xmlns="http://www.w3.org/2000/svg">
<path d="M26.6199 19.2128L41.7431 0.0747313H34.7693H32.8167C30.9636 0.104619 29.363 0.976342 28.0147 2.6899L20.5029 12.2639L12.9912 2.7148C11.6163 0.976336 10.0024 0.119546 8.1942 0.119546H2.27645C1.28019 0.119546 0.782064 0.542974 0.782064 1.38481C0.81874 1.88515 1.02221 2.35871 1.35989 2.72973L14.4009 19.2277L0.57783 36.8863C0.243605 37.2615 0.0407523 37.7355 0 38.2363C0.114569 39.0632 0.632625 39.4716 1.5442 39.4716H7.40218C9.22532 39.4716 10.8243 38.6148 12.1742 36.8863L20.5278 26.2065L28.9063 36.8614C30.2712 38.575 31.8553 39.4318 33.6834 39.4318H42.5401L26.6199 19.2128ZM103.376 39.3521L109.469 31.5813H94.4848C89.5733 31.5813 86.2159 30.6946 84.4476 28.9014C82.6792 27.1081 81.7726 24.0546 81.7726 19.7209C81.7726 15.3872 82.6394 12.3038 84.4227 10.4956C86.206 8.68735 89.5484 7.78574 94.4649 7.78574H110.216L104.074 0H94.1511C86.2176 0 80.4476 1.5907 76.8412 4.77207C75.1666 6.2771 73.8683 8.15379 73.0504 10.2515C74.0972 13.2845 74.603 16.4779 74.5448 19.686C74.6118 22.8947 74.1057 26.0896 73.0504 29.1206C73.8741 31.2189 75.1774 33.0954 76.8561 34.6C80.4958 37.768 86.2857 39.3521 94.2258 39.3521H103.376ZM72.1488 13.026C71.9177 12.0936 71.618 11.1795 71.2522 10.2913C70.4362 8.18883 69.1317 6.31065 67.4465 4.8119C63.84 1.64049 58.0651 0.0597826 50.1216 0.0697452H43.8452L37.7132 7.83554H49.8277C54.7392 7.83554 58.0966 8.72222 59.865 10.5304C61.6333 12.3386 62.5349 15.4021 62.5349 19.7408C62.5349 24.0795 61.6632 27.1529 59.8799 28.9512C58.0966 30.7494 54.7691 31.6461 49.8576 31.6461H38.5252L44.6322 39.3969H50.1664C58.0966 39.3969 63.8716 37.8112 67.4913 34.6398C69.161 33.1305 70.4585 31.255 71.2821 29.1604C71.6474 28.2734 71.9422 27.359 72.1637 26.4257C73.1501 22.0102 73.1501 17.4315 72.1637 13.0161L72.1488 13.026Z" fill="white"/>
<path d="M28.7969 19.2427L36.6573 29.2052L36.6324 9.28012L28.7969 19.2427Z" fill="white"/>
<path d="M20.5433 33.4443L15.9805 39.3521H25.1012L20.5433 33.4443Z" fill="white"/>
<path d="M2.22074 44.4529C2.30044 44.6654 2.41003 44.9494 2.5495 45.3047C2.69396 45.6584 2.84838 46.0569 3.04763 46.4952C3.24688 46.9336 3.41126 47.4018 3.61549 47.8999C3.81973 48.398 4.02396 48.8962 4.22819 49.3943C4.43242 49.8924 4.63665 50.3906 4.84088 50.8887L5.39381 52.2536C5.56317 52.672 5.71759 53.0406 5.8471 53.3644C5.97662 53.6882 6.0862 53.9323 6.15594 54.1116C6.22568 53.9323 6.3253 53.6832 6.4598 53.3644C6.59429 53.0456 6.74373 52.672 6.9131 52.2536L7.46602 50.8887C7.66029 50.3906 7.86452 49.8924 8.06875 49.3943C8.27298 48.8962 8.47223 48.398 8.67149 47.8999C8.87074 47.4018 9.06003 46.9336 9.23935 46.4952C9.41868 46.0569 9.56812 45.6584 9.73748 45.3047C9.90684 44.951 9.98654 44.6671 10.0662 44.4529C10.1039 44.3643 10.1619 44.2858 10.2356 44.2238C10.3186 44.1655 10.4182 44.1358 10.5195 44.1391H11.4062C11.6752 44.1391 11.8047 44.2387 11.8047 44.438C11.8072 44.4595 11.8072 44.4812 11.8047 44.5027C11.8019 44.5292 11.8019 44.5559 11.8047 44.5824V44.6671L6.95295 56.4229C6.94018 56.4554 6.9252 56.4871 6.90812 56.5176C6.89133 56.5552 6.86955 56.5903 6.84336 56.6221C6.80697 56.656 6.76479 56.683 6.71883 56.7019C6.65005 56.726 6.57752 56.7378 6.50463 56.7367H5.85707C5.78741 56.738 5.71814 56.7261 5.65283 56.7019C5.60687 56.683 5.56469 56.656 5.5283 56.6221C5.50073 56.5904 5.4773 56.5552 5.45856 56.5176L5.41871 56.4229L0.522118 44.6671V44.6073C0.516065 44.551 0.516065 44.4942 0.522118 44.438C0.522118 44.2387 0.651628 44.1391 0.915636 44.1391H1.81227C1.91214 44.135 2.01044 44.1649 2.09122 44.2238C2.15415 44.2872 2.19889 44.3663 2.22074 44.4529Z" fill="white"/>
<path d="M17.5144 43.9697C18.6599 43.9649 19.7855 44.2695 20.7722 44.8514C21.2492 45.1291 21.6908 45.4636 22.0872 45.8476C22.4753 46.2407 22.8102 46.6828 23.0835 47.1627C23.3655 47.6512 23.5848 48.1734 23.7361 48.7169C24.0448 49.8451 24.0448 51.0356 23.7361 52.1639C23.5878 52.7052 23.3684 53.2245 23.0835 53.7081C22.8069 54.1829 22.4723 54.6213 22.0872 55.0132C21.696 55.4011 21.2555 55.7361 20.7772 56.0095C20.2906 56.2907 19.77 56.5084 19.228 56.657C18.6633 56.8118 18.0801 56.8889 17.4945 56.8862C16.3459 56.8908 15.2172 56.5862 14.2268 56.0045C13.753 55.7265 13.3148 55.3919 12.9217 55.0082C12.5349 54.616 12.2001 54.1757 11.9254 53.6981C11.6442 53.2133 11.4266 52.6943 11.2779 52.154C10.9725 51.0269 10.9725 49.8389 11.2779 48.7119C11.4272 48.1693 11.6465 47.6486 11.9304 47.1627C12.2095 46.6866 12.5439 46.2452 12.9267 45.8476C13.3197 45.4596 13.7618 45.1247 14.2417 44.8514C14.7268 44.5694 15.2457 44.3501 15.7859 44.1988C16.3489 44.0437 16.9305 43.9667 17.5144 43.9697ZM12.6627 50.4454C12.6595 50.8799 12.7182 51.3126 12.837 51.7305C12.9532 52.1338 13.1206 52.5205 13.3351 52.8812C13.7518 53.6017 14.3494 54.2009 15.0686 54.6197C15.4292 54.8344 15.816 55.0018 16.2193 55.1178C16.6373 55.2363 17.07 55.295 17.5045 55.2922C17.9373 55.2954 18.3684 55.2367 18.7847 55.1178C20.0011 54.786 21.0375 53.9877 21.6688 52.8962C21.8834 52.5355 22.0508 52.1488 22.1669 51.7455C22.2858 51.3275 22.3445 50.8948 22.3413 50.4603C22.3467 49.8148 22.2178 49.1753 21.9627 48.5824C21.4719 47.4274 20.5523 46.5078 19.3974 46.017C18.8036 45.7584 18.162 45.6277 17.5144 45.6335C17.0801 45.6331 16.6478 45.6917 16.2293 45.8078C15.826 45.924 15.4393 46.0914 15.0786 46.3059C14.7152 46.5123 14.3803 46.7651 14.0823 47.0581C13.7902 47.3568 13.5375 47.6916 13.3302 48.0543C13.1147 48.4163 12.9473 48.8048 12.832 49.21C12.7211 49.6057 12.6641 50.0145 12.6627 50.4254V50.4454Z" fill="white"/>
<path d="M32.5333 44.1391C32.6344 44.1375 32.7329 44.1709 32.8122 44.2337C32.8535 44.268 32.8872 44.3106 32.9112 44.3586C32.9352 44.4066 32.949 44.459 32.9517 44.5127V45.3694C32.9536 45.4769 32.9164 45.5813 32.8471 45.6633C32.8073 45.7058 32.7583 45.7386 32.704 45.7593C32.6496 45.78 32.5912 45.7881 32.5333 45.7829H29.0065V56.3432C29.0073 56.4444 28.9699 56.5422 28.9019 56.6171C28.8672 56.6578 28.8234 56.6898 28.7741 56.7105C28.7248 56.7313 28.6713 56.7403 28.618 56.7367H27.7612C27.6583 56.7363 27.5598 56.6951 27.4872 56.6221C27.4479 56.5874 27.4167 56.5444 27.396 56.4961C27.3753 56.4479 27.3657 56.3956 27.3677 56.3432V45.7829H23.826C23.722 45.788 23.6201 45.7523 23.5421 45.6833C23.5038 45.6409 23.4744 45.5913 23.4556 45.5374C23.4368 45.4835 23.4289 45.4264 23.4325 45.3694V44.5127C23.4307 44.4626 23.4395 44.4128 23.4584 44.3664C23.4773 44.32 23.5058 44.2782 23.5421 44.2437C23.6193 44.1728 23.7213 44.1352 23.826 44.1391H32.5333Z" fill="white"/>
<path d="M33.6188 44.5127C33.6182 44.4154 33.6537 44.3213 33.7184 44.2487C33.7535 44.2118 33.7962 44.1829 33.8435 44.1639C33.8907 44.145 33.9416 44.1365 33.9924 44.1391H34.8741C34.9753 44.1384 35.0731 44.1757 35.1481 44.2437C35.1869 44.2764 35.2175 44.3178 35.2374 44.3645C35.2573 44.4112 35.266 44.462 35.2626 44.5127V56.3632C35.2626 56.6122 35.1331 56.7367 34.8741 56.7367H33.9924C33.9416 56.7443 33.8897 56.7399 33.841 56.7238C33.7922 56.7077 33.7478 56.6803 33.7115 56.644C33.6752 56.6077 33.6479 56.5634 33.6318 56.5146C33.6157 56.4658 33.6113 56.414 33.6188 56.3632V44.5127Z" fill="white"/>
<path d="M46.1121 56.7367C46.0474 56.7342 45.9844 56.7156 45.9287 56.6825C45.873 56.6495 45.8265 56.603 45.7933 56.5474L38.3862 46.6247V56.3631C38.3862 56.6122 38.2567 56.7367 37.9976 56.7367H37.1409C37.09 56.7443 37.0382 56.7398 36.9894 56.7237C36.9406 56.7076 36.8963 56.6803 36.86 56.644C36.8236 56.6077 36.7963 56.5633 36.7802 56.5146C36.7641 56.4658 36.7597 56.4139 36.7673 56.3631V44.5276C36.7649 44.4255 36.8004 44.3261 36.8669 44.2487C36.9027 44.2127 36.9455 44.1845 36.9926 44.1657C37.0397 44.1468 37.0901 44.1378 37.1409 44.1391H38.2766C38.3473 44.1385 38.4171 44.1556 38.4797 44.1886C38.5423 44.2216 38.5957 44.2696 38.6352 44.3283L45.8531 53.9173V44.4529C45.8556 44.4077 45.8672 44.3634 45.8873 44.3228C45.9074 44.2822 45.9355 44.2462 45.97 44.2168C46.0045 44.1874 46.0446 44.1654 46.0879 44.152C46.1311 44.1387 46.1767 44.1343 46.2217 44.1391H47.0785C47.1826 44.1387 47.2834 44.1758 47.3624 44.2437C47.4056 44.2737 47.4405 44.314 47.464 44.361C47.4875 44.408 47.4988 44.4601 47.4969 44.5127V56.3631C47.4969 56.6122 47.3575 56.7367 47.0785 56.7367H46.1121Z" fill="white"/>
<path d="M57.4345 51.5462C57.427 51.4954 57.4314 51.4436 57.4475 51.3948C57.4636 51.346 57.4909 51.3017 57.5272 51.2654C57.5635 51.229 57.6079 51.2017 57.6567 51.1856C57.7054 51.1695 57.7573 51.1651 57.8081 51.1726H58.6848C58.7829 51.1713 58.8782 51.2048 58.9538 51.2673C58.9941 51.3013 59.0258 51.3442 59.0466 51.3926C59.0673 51.4411 59.0765 51.4936 59.0734 51.5462V55.337C59.0733 55.4027 59.058 55.4675 59.0285 55.5263C58.9988 55.5894 58.95 55.6417 58.8891 55.6757L58.8193 55.7255C58.2841 56.1127 57.6905 56.412 57.0609 56.6122C56.3921 56.8221 55.6946 56.9263 54.9937 56.9211C54.4098 56.9238 53.8282 56.8467 53.2652 56.6919C52.7254 56.5437 52.2078 56.3242 51.726 56.0394C51.2506 55.7615 50.8107 55.4269 50.4159 55.0431C50.0289 54.651 49.6941 54.2107 49.4196 53.733C48.6969 52.4995 48.4027 51.0614 48.5829 49.6431C48.7631 48.2249 49.4076 46.9061 50.4159 45.8925C50.8078 45.5075 51.2463 45.1728 51.721 44.8962C52.712 44.3104 53.8425 44.0024 54.9937 44.0046C55.6706 44.0035 56.3434 44.1111 56.9862 44.3234C57.6312 44.535 58.2407 44.8423 58.7944 45.235C58.8531 45.2787 58.9051 45.3307 58.9488 45.3894C58.9829 45.445 59.0018 45.5085 59.0036 45.5737C59.0067 45.6473 58.9837 45.7196 58.9389 45.7779L58.4906 46.5251C58.4601 46.5801 58.4172 46.6272 58.3653 46.6626C58.3134 46.6981 58.254 46.7209 58.1917 46.7293C58.1469 46.7284 58.1028 46.7183 58.0622 46.6995C58.0023 46.6724 57.9455 46.639 57.8928 46.5998C57.4855 46.311 57.0394 46.0813 56.5678 45.9174C56.0755 45.7498 55.5586 45.6656 55.0385 45.6683C54.3685 45.6627 53.7048 45.7985 53.0909 46.0668C51.9257 46.5723 50.9999 47.507 50.5056 48.677C50.2579 49.2529 50.1308 49.8733 50.132 50.5002C50.1277 51.1492 50.2583 51.7921 50.5155 52.3881C51.0049 53.5371 51.921 54.4513 53.0709 54.9385C53.6567 55.1881 54.2873 55.3152 54.924 55.3121C55.3435 55.3096 55.7602 55.2424 56.1593 55.1128C56.5728 54.9783 56.9862 54.8239 57.4096 54.6147L57.4345 51.5462Z" fill="white"/>
<path d="M73.5231 56.7367C73.4726 56.7434 73.4213 56.7384 73.3732 56.7219C73.3251 56.7054 73.2814 56.6779 73.2457 56.6417C73.21 56.6055 73.1831 56.5615 73.1673 56.5132C73.1515 56.4648 73.1471 56.4135 73.1545 56.3631V55.337C72.6683 55.8323 72.0917 56.2296 71.4558 56.5076C70.7935 56.7918 70.0795 56.936 69.3587 56.931C68.8655 56.9306 68.3745 56.8636 67.8992 56.7318C67.4343 56.5999 66.9875 56.4109 66.5692 56.1689C65.7508 55.6793 65.0663 54.9948 64.5767 54.1764C64.3274 53.7605 64.1348 53.3132 64.0038 52.8464C63.7383 51.883 63.7383 50.8658 64.0038 49.9024C64.1366 49.4362 64.3292 48.9892 64.5767 48.5724C65.0649 47.753 65.7498 47.0682 66.5692 46.5799C67.4109 46.0721 68.3757 45.805 69.3587 45.8078C70.0801 45.8019 70.7946 45.9478 71.4558 46.2362C72.091 46.5177 72.6673 46.9165 73.1545 47.4118V43.1378C73.1538 43.0396 73.1913 42.9449 73.2591 42.8738C73.2966 42.8374 73.3411 42.8089 73.3899 42.7901C73.4386 42.7712 73.4907 42.7625 73.543 42.7642H74.4247C74.5229 42.7635 74.6176 42.801 74.6887 42.8689C74.7247 42.9036 74.7531 42.9454 74.7719 42.9918C74.7908 43.0381 74.7998 43.0878 74.7983 43.1378V56.3631C74.7983 56.6122 74.6638 56.7367 74.3998 56.7367H73.5231ZM73.2391 51.3669C73.2358 50.8533 73.1309 50.3454 72.9303 49.8725C72.7353 49.3973 72.4551 48.9618 72.1034 48.5873C71.751 48.2168 71.3319 47.916 70.868 47.7007C70.4 47.4831 69.8898 47.3708 69.3737 47.3719C68.8573 47.3695 68.3469 47.4818 67.8793 47.7007C67.4197 47.9159 67.0055 48.2168 66.6589 48.5873C66.3071 48.9607 66.0283 49.3966 65.837 49.8725C65.6421 50.3468 65.5407 50.8542 65.5381 51.3669C65.5352 51.8898 65.6368 52.4081 65.837 52.8912C66.0286 53.361 66.3075 53.7903 66.6589 54.1564C67.0066 54.5206 67.4209 54.8148 67.8793 55.0232C68.3483 55.2368 68.8583 55.3455 69.3737 55.342C69.8889 55.3441 70.3986 55.2354 70.868 55.0232C71.331 54.815 71.7502 54.5209 72.1034 54.1564C72.4547 53.7893 72.7351 53.3603 72.9303 52.8912C73.1361 52.4095 73.2412 51.8907 73.2391 51.3669Z" fill="white"/>
<path d="M77.0101 56.4229C76.9742 56.5125 76.9159 56.5914 76.8407 56.652C76.7596 56.7102 76.6615 56.74 76.5617 56.7367H75.6651C75.4011 56.7367 75.2716 56.6371 75.2716 56.4378C75.2688 56.4047 75.2688 56.3714 75.2716 56.3382C75.2693 56.315 75.2693 56.2917 75.2716 56.2685V56.2087L80.1632 44.4529C80.1799 44.4205 80.1949 44.3873 80.208 44.3533C80.2249 44.316 80.2485 44.2822 80.2778 44.2537C80.3109 44.2182 80.3518 44.1909 80.3973 44.1739C80.4672 44.1475 80.5418 44.1356 80.6165 44.1391H81.1744C81.2458 44.1355 81.3172 44.1474 81.3836 44.1739C81.4306 44.1909 81.4731 44.2181 81.5081 44.2537C81.5343 44.2837 81.5561 44.3172 81.5729 44.3533L81.6177 44.4529L86.4695 56.2087V56.2934V56.3731C86.4737 56.3945 86.4737 56.4165 86.4695 56.4378C86.4695 56.6371 86.34 56.7367 86.081 56.7367H85.259C85.1594 56.7393 85.0615 56.7095 84.9801 56.652C84.9049 56.5914 84.8466 56.5125 84.8107 56.4229L83.8792 54.0867H77.9017C77.7074 54.5848 77.5231 55.0481 77.3587 55.4565C77.1944 55.865 77.0898 56.1838 77.0101 56.4229ZM78.5991 52.4379H83.2217L80.9303 46.6347L78.5991 52.4379Z" fill="white"/>
<path d="M88.8767 47.362C89.3639 46.8667 89.9402 46.4678 90.5753 46.1864C91.2367 45.8986 91.9511 45.7526 92.6724 45.758C93.169 45.7579 93.6633 45.8249 94.1419 45.9572C94.6059 46.0896 95.0511 46.2804 95.4669 46.5251C95.8787 46.7652 96.2572 47.0583 96.5927 47.3968C96.9317 47.7344 97.2278 48.1125 97.4744 48.5226C97.72 48.9397 97.9109 49.3867 98.0422 49.8526C98.3078 50.8159 98.3078 51.8332 98.0422 52.7965C97.9109 53.2624 97.72 53.7094 97.4744 54.1265C97.2305 54.5399 96.9341 54.92 96.5927 55.2573C95.9149 55.9469 95.0682 56.4467 94.1369 56.7068C93.6599 56.8386 93.1673 56.9055 92.6724 56.9061C91.9511 56.9114 91.2367 56.7655 90.5753 56.4777C89.9402 56.1962 89.3639 55.7974 88.8767 55.3021V59.6259C88.8774 59.6764 88.8678 59.7266 88.8483 59.7732C88.8289 59.8199 88.8 59.862 88.7636 59.8971C88.7272 59.9321 88.6839 59.9593 88.6365 59.9769C88.5891 59.9945 88.5386 60.0022 88.4882 59.9995H87.6065C87.5091 60.0005 87.4149 59.9649 87.3424 59.8998C87.3055 59.8647 87.2766 59.8221 87.2577 59.7748C87.2388 59.7275 87.2303 59.6767 87.2329 59.6259V46.3258C87.2329 46.0768 87.3674 45.9522 87.6314 45.9522H88.5031C88.5539 45.9447 88.6058 45.9491 88.6545 45.9652C88.7033 45.9813 88.7477 46.0086 88.784 46.0449C88.8203 46.0813 88.8476 46.1256 88.8637 46.1744C88.8798 46.2232 88.8843 46.275 88.8767 46.3258V47.362ZM88.792 51.3221C88.792 51.8441 88.897 52.3608 89.1008 52.8414C89.4877 53.7991 90.2227 54.575 91.1581 55.0132C91.6264 55.2302 92.1364 55.3424 92.6525 55.3419C93.1688 55.3443 93.6792 55.2321 94.1469 55.0132C94.6064 54.798 95.0206 54.4971 95.3673 54.1265C95.7191 53.7532 95.9978 53.3173 96.1892 52.8414C96.3898 52.36 96.4931 51.8436 96.4931 51.3221C96.4931 50.8006 96.3898 50.2842 96.1892 49.8028C95.9976 49.3314 95.7187 48.9005 95.3673 48.5325C95.0169 48.1714 94.6033 47.8777 94.1469 47.6658C93.6777 47.4525 93.1678 47.3437 92.6525 47.347C92.1373 47.3456 91.6278 47.4543 91.1581 47.6658C90.6995 47.8788 90.2827 48.1724 89.9277 48.5325C89.5747 48.9002 89.2942 49.3311 89.1008 49.8028C88.8984 50.2785 88.7934 50.7901 88.792 51.3071V51.3221Z" fill="white"/>
<path d="M100.861 47.362C101.348 46.8659 101.924 46.467 102.56 46.1864C103.221 45.8986 103.935 45.7526 104.657 45.758C105.153 45.7582 105.648 45.8252 106.126 45.9572C106.59 46.0896 107.035 46.2804 107.451 46.5251C107.863 46.7652 108.242 47.0583 108.577 47.3968C108.915 47.7357 109.211 48.1136 109.459 48.5226C109.704 48.9397 109.895 49.3867 110.027 49.8526C110.292 50.8159 110.292 51.8332 110.027 52.7965C109.895 53.2624 109.704 53.7094 109.459 54.1265C109.213 54.5387 108.917 54.9186 108.577 55.2573C107.899 55.9469 107.053 56.4467 106.121 56.7068C105.644 56.8386 105.152 56.9055 104.657 56.9061C103.935 56.9114 103.221 56.7655 102.56 56.4777C101.924 56.1971 101.348 55.7981 100.861 55.3021V59.6259C100.862 59.6764 100.852 59.7266 100.833 59.7732C100.813 59.8199 100.784 59.862 100.748 59.8971C100.712 59.9321 100.668 59.9593 100.621 59.9769C100.574 59.9945 100.523 60.0022 100.473 59.9995H99.5908C99.4935 60.0005 99.3992 59.9649 99.3268 59.8998C99.2899 59.8647 99.261 59.8221 99.2421 59.7748C99.2232 59.7275 99.2147 59.6767 99.2172 59.6259V46.3258C99.2172 46.0768 99.3517 45.9522 99.6157 45.9522H100.487C100.538 45.9447 100.59 45.9491 100.639 45.9652C100.688 45.9813 100.732 46.0086 100.768 46.0449C100.805 46.0813 100.832 46.1256 100.848 46.1744C100.864 46.2232 100.869 46.275 100.861 46.3258V47.362ZM100.776 51.3221C100.777 51.8435 100.881 52.3597 101.08 52.8414C101.277 53.3168 101.559 53.7523 101.912 54.1265C102.264 54.4958 102.681 54.7965 103.142 55.0132C103.612 55.2268 104.121 55.3374 104.637 55.3374C105.152 55.3374 105.662 55.2268 106.131 55.0132C106.59 54.7964 107.004 54.4956 107.352 54.1265C107.703 53.7532 107.982 53.3173 108.174 52.8414C108.374 52.36 108.477 51.8436 108.477 51.3221C108.477 50.8006 108.374 50.2842 108.174 49.8028C107.982 49.3314 107.703 48.9005 107.352 48.5325C107 48.1725 106.587 47.8789 106.131 47.6658C105.66 47.4586 105.151 47.3516 104.637 47.3516C104.122 47.3516 103.613 47.4586 103.142 47.6658C102.684 47.8788 102.267 48.1724 101.912 48.5325C101.559 48.9013 101.277 49.3319 101.08 49.8028C100.882 50.2796 100.778 50.7906 100.776 51.3071V51.3221Z" fill="white"/>
</svg>
