<svg width="111" height="60" viewBox="0 0 111 60" fill="none" xmlns="http://www.w3.org/2000/svg">
<path d="M26.6199 19.2128L41.7431 0.0747313H34.7693H32.8167C30.9636 0.104619 29.363 0.976342 28.0147 2.6899L20.5029 12.2639L12.9912 2.7148C11.6163 0.976336 10.0024 0.119546 8.1942 0.119546H2.27645C1.28019 0.119546 0.782064 0.542974 0.782064 1.38481C0.81874 1.88515 1.02221 2.35871 1.35989 2.72973L14.4009 19.2277L0.57783 36.8863C0.243605 37.2615 0.0407523 37.7355 0 38.2363C0.114569 39.0632 0.632625 39.4716 1.5442 39.4716H7.40218C9.22532 39.4716 10.8243 38.6148 12.1742 36.8863L20.5278 26.2065L28.9063 36.8614C30.2712 38.575 31.8553 39.4318 33.6834 39.4318H42.5401L26.6199 19.2128ZM103.376 39.3521L109.469 31.5813H94.4848C89.5733 31.5813 86.2159 30.6946 84.4476 28.9014C82.6792 27.1081 81.7726 24.0546 81.7726 19.7209C81.7726 15.3872 82.6394 12.3038 84.4227 10.4956C86.206 8.68735 89.5484 7.78574 94.4649 7.78574H110.216L104.074 0H94.1511C86.2176 0 80.4476 1.5907 76.8412 4.77207C75.1666 6.2771 73.8683 8.15379 73.0504 10.2515C74.0972 13.2845 74.603 16.4779 74.5448 19.686C74.6118 22.8947 74.1057 26.0896 73.0504 29.1206C73.8741 31.2189 75.1774 33.0954 76.8561 34.6C80.4958 37.768 86.2857 39.3521 94.2258 39.3521H103.376ZM72.1488 13.026C71.9177 12.0936 71.618 11.1795 71.2522 10.2913C70.4362 8.18883 69.1317 6.31065 67.4465 4.8119C63.84 1.64049 58.0651 0.0597826 50.1216 0.0697452H43.8452L37.7132 7.83554H49.8277C54.7392 7.83554 58.0966 8.72222 59.865 10.5304C61.6333 12.3386 62.5349 15.4021 62.5349 19.7408C62.5349 24.0795 61.6632 27.1529 59.8799 28.9512C58.0966 30.7494 54.7691 31.6461 49.8576 31.6461H38.5252L44.6322 39.3969H50.1664C58.0966 39.3969 63.8716 37.8112 67.4913 34.6398C69.161 33.1305 70.4585 31.255 71.2821 29.1604C71.6474 28.2734 71.9422 27.359 72.1637 26.4257C73.1501 22.0102 73.1501 17.4315 72.1637 13.0161L72.1488 13.026Z" fill="#2F4E9D"/>
<path d="M28.7968 19.2427L36.6572 29.2052L36.6323 9.28012L28.7968 19.2427Z" fill="#2F4E9D"/>
<path d="M20.5428 33.4443L15.9799 39.3521H25.1006L20.5428 33.4443Z" fill="#2F4E9D"/>
<path d="M2.22165 44.4529C2.30135 44.6654 2.41094 44.9494 2.55042 45.3047C2.69487 45.6584 2.84929 46.0569 3.04854 46.4952C3.2478 46.9336 3.41218 47.4018 3.61641 47.8999C3.82064 48.398 4.02487 48.8962 4.2291 49.3943C4.43334 49.8924 4.63757 50.3906 4.8418 50.8887L5.39472 52.2536C5.56408 52.672 5.71851 53.0406 5.84802 53.3644C5.97753 53.6882 6.08712 53.9323 6.15686 54.1116C6.22659 53.9323 6.32622 53.6832 6.46071 53.3644C6.59521 53.0456 6.74465 52.672 6.91401 52.2536L7.46693 50.8887C7.6612 50.3906 7.86543 49.8924 8.06966 49.3943C8.2739 48.8962 8.47315 48.398 8.6724 47.8999C8.87165 47.4018 9.06094 46.9336 9.24027 46.4952C9.41959 46.0569 9.56903 45.6584 9.73839 45.3047C9.90776 44.951 9.98746 44.6671 10.0672 44.4529C10.1048 44.3643 10.1628 44.2858 10.2365 44.2238C10.3195 44.1655 10.4191 44.1358 10.5205 44.1391H11.4071C11.6761 44.1391 11.8056 44.2387 11.8056 44.438C11.8081 44.4595 11.8081 44.4812 11.8056 44.5027C11.8028 44.5292 11.8028 44.5559 11.8056 44.5824V44.6671L6.95386 56.4229C6.94109 56.4554 6.92612 56.4871 6.90903 56.5176C6.89225 56.5552 6.87046 56.5903 6.84427 56.6221C6.80789 56.656 6.7657 56.683 6.71974 56.7019C6.65096 56.726 6.57844 56.7378 6.50554 56.7367H5.85798C5.78833 56.738 5.71905 56.7261 5.65375 56.7019C5.60779 56.683 5.5656 56.656 5.52922 56.6221C5.50165 56.5904 5.47821 56.5552 5.45948 56.5176L5.41963 56.4229L0.523034 44.6671V44.6073C0.51698 44.551 0.51698 44.4942 0.523034 44.438C0.523034 44.2387 0.652544 44.1391 0.916551 44.1391H1.81318C1.91305 44.135 2.01135 44.1649 2.09213 44.2238C2.15507 44.2872 2.1998 44.3663 2.22165 44.4529Z" fill="#2F4E9D"/>
<path d="M17.5142 43.9697C18.6597 43.9649 19.7852 44.2695 20.7719 44.8514C21.2489 45.1291 21.6905 45.4636 22.087 45.8476C22.475 46.2407 22.8099 46.6828 23.0832 47.1627C23.3653 47.6512 23.5845 48.1734 23.7358 48.7169C24.0445 49.8451 24.0445 51.0356 23.7358 52.1639C23.5876 52.7052 23.3681 53.2245 23.0832 53.7081C22.8067 54.1829 22.472 54.6213 22.087 55.0132C21.6957 55.4011 21.2553 55.7361 20.7769 56.0095C20.2904 56.2907 19.7697 56.5084 19.2277 56.657C18.663 56.8118 18.0798 56.8889 17.4942 56.8862C16.3456 56.8908 15.2169 56.5862 14.2265 56.0045C13.7527 55.7265 13.3145 55.3919 12.9214 55.0082C12.5346 54.616 12.1998 54.1757 11.9252 53.6981C11.6439 53.2133 11.4263 52.6943 11.2776 52.154C10.9722 51.0269 10.9722 49.8389 11.2776 48.7119C11.4269 48.1693 11.6462 47.6486 11.9301 47.1627C12.2092 46.6866 12.5436 46.2452 12.9264 45.8476C13.3194 45.4596 13.7615 45.1247 14.2415 44.8514C14.7265 44.5694 15.2454 44.3501 15.7857 44.1988C16.3486 44.0437 16.9302 43.9667 17.5142 43.9697ZM12.6624 50.4454C12.6592 50.8799 12.7179 51.3126 12.8367 51.7305C12.9529 52.1338 13.1203 52.5205 13.3349 52.8812C13.7516 53.6017 14.3491 54.2009 15.0684 54.6197C15.429 54.8344 15.8157 55.0018 16.219 55.1178C16.637 55.2363 17.0697 55.295 17.5042 55.2922C17.9371 55.2954 18.3682 55.2367 18.7844 55.1178C20.0008 54.786 21.0373 53.9877 21.6685 52.8962C21.8831 52.5355 22.0505 52.1488 22.1667 51.7455C22.2855 51.3275 22.3442 50.8948 22.341 50.4603C22.3465 49.8148 22.2175 49.1753 21.9624 48.5824C21.4717 47.4274 20.5521 46.5078 19.3971 46.017C18.8033 45.7584 18.1618 45.6277 17.5142 45.6335C17.0799 45.6331 16.6475 45.6917 16.229 45.8078C15.8257 45.924 15.439 46.0914 15.0783 46.3059C14.7149 46.5123 14.38 46.7651 14.0821 47.0581C13.7899 47.3568 13.5372 47.6916 13.3299 48.0543C13.1144 48.4163 12.947 48.8048 12.8318 49.21C12.7208 49.6057 12.6639 50.0145 12.6624 50.4254V50.4454Z" fill="#2F4E9D"/>
<path d="M32.5327 44.1391C32.6338 44.1375 32.7324 44.1709 32.8117 44.2337C32.8529 44.268 32.8866 44.3106 32.9106 44.3586C32.9346 44.4066 32.9484 44.459 32.9511 44.5127V45.3694C32.953 45.4769 32.9159 45.5813 32.8465 45.6633C32.8067 45.7058 32.7578 45.7386 32.7034 45.7593C32.649 45.78 32.5907 45.7881 32.5327 45.7829H29.006V56.3432C29.0067 56.4444 28.9694 56.5422 28.9014 56.6171C28.8666 56.6578 28.8228 56.6898 28.7735 56.7105C28.7243 56.7313 28.6708 56.7403 28.6174 56.7367H27.7607C27.6578 56.7363 27.5592 56.6951 27.4867 56.6221C27.4473 56.5874 27.4161 56.5444 27.3955 56.4961C27.3748 56.4479 27.3651 56.3956 27.3671 56.3432V45.7829H23.8254C23.7214 45.788 23.6195 45.7523 23.5415 45.6833C23.5033 45.6409 23.4739 45.5913 23.455 45.5374C23.4362 45.4835 23.4284 45.4264 23.4319 45.3694V44.5127C23.4301 44.4626 23.4389 44.4128 23.4578 44.3664C23.4767 44.32 23.5052 44.2782 23.5415 44.2437C23.6187 44.1728 23.7207 44.1352 23.8254 44.1391H32.5327Z" fill="#2F4E9D"/>
<path d="M33.6187 44.5127C33.6181 44.4154 33.6536 44.3213 33.7183 44.2487C33.7534 44.2118 33.796 44.1829 33.8433 44.1639C33.8906 44.145 33.9414 44.1365 33.9923 44.1391H34.8739C34.9752 44.1384 35.0729 44.1757 35.1479 44.2437C35.1868 44.2764 35.2174 44.3178 35.2373 44.3645C35.2572 44.4112 35.2658 44.462 35.2625 44.5127V56.3632C35.2625 56.6122 35.133 56.7367 34.8739 56.7367H33.9923C33.9415 56.7443 33.8896 56.7399 33.8408 56.7238C33.792 56.7077 33.7477 56.6803 33.7114 56.644C33.6751 56.6077 33.6477 56.5634 33.6316 56.5146C33.6155 56.4658 33.6111 56.414 33.6187 56.3632V44.5127Z" fill="#2F4E9D"/>
<path d="M46.1116 56.7367C46.0469 56.7342 45.9839 56.7156 45.9282 56.6825C45.8725 56.6495 45.826 56.603 45.7928 56.5474L38.3857 46.6247V56.3631C38.3857 56.6122 38.2562 56.7367 37.9971 56.7367H37.1404C37.0896 56.7443 37.0377 56.7398 36.9889 56.7237C36.9401 56.7076 36.8958 56.6803 36.8595 56.644C36.8232 56.6077 36.7958 56.5633 36.7798 56.5146C36.7637 56.4658 36.7592 56.4139 36.7668 56.3631V44.5276C36.7644 44.4255 36.7999 44.3261 36.8664 44.2487C36.9022 44.2127 36.945 44.1845 36.9921 44.1657C37.0392 44.1468 37.0896 44.1378 37.1404 44.1391H38.2761C38.3469 44.1385 38.4167 44.1556 38.4792 44.1886C38.5418 44.2216 38.5953 44.2696 38.6347 44.3283L45.8526 53.9173V44.4529C45.8551 44.4077 45.8667 44.3634 45.8868 44.3228C45.9069 44.2822 45.935 44.2462 45.9695 44.2168C46.004 44.1874 46.0441 44.1654 46.0874 44.152C46.1307 44.1387 46.1762 44.1343 46.2212 44.1391H47.078C47.1822 44.1387 47.283 44.1758 47.362 44.2437C47.4051 44.2737 47.44 44.314 47.4635 44.361C47.487 44.408 47.4983 44.4601 47.4964 44.5127V56.3631C47.4964 56.6122 47.357 56.7367 47.078 56.7367H46.1116Z" fill="#2F4E9D"/>
<path d="M57.4341 51.5462C57.4266 51.4954 57.431 51.4436 57.4471 51.3948C57.4632 51.346 57.4905 51.3017 57.5268 51.2654C57.5632 51.229 57.6075 51.2017 57.6563 51.1856C57.705 51.1695 57.7569 51.1651 57.8077 51.1726H58.6844C58.7825 51.1713 58.8778 51.2048 58.9534 51.2673C58.9937 51.3013 59.0254 51.3442 59.0462 51.3926C59.0669 51.4411 59.0761 51.4936 59.073 51.5462V55.337C59.0729 55.4027 59.0576 55.4675 59.0281 55.5263C58.9984 55.5894 58.9496 55.6417 58.8887 55.6757L58.8189 55.7255C58.2837 56.1127 57.6901 56.412 57.0605 56.6122C56.3917 56.8221 55.6942 56.9263 54.9933 56.9211C54.4094 56.9238 53.8278 56.8467 53.2648 56.6919C52.725 56.5437 52.2074 56.3242 51.7256 56.0394C51.2502 55.7615 50.8103 55.4269 50.4155 55.0431C50.0285 54.651 49.6937 54.2107 49.4192 53.733C48.6965 52.4995 48.4023 51.0614 48.5825 49.6431C48.7627 48.2249 49.4072 46.9061 50.4155 45.8925C50.8074 45.5075 51.2459 45.1728 51.7206 44.8962C52.7116 44.3104 53.8421 44.0024 54.9933 44.0046C55.6702 44.0035 56.343 44.1111 56.9858 44.3234C57.6308 44.535 58.2403 44.8423 58.794 45.235C58.8527 45.2787 58.9047 45.3307 58.9484 45.3894C58.9825 45.445 59.0014 45.5085 59.0032 45.5737C59.0063 45.6473 58.9833 45.7196 58.9385 45.7779L58.4902 46.5251C58.4597 46.5801 58.4168 46.6272 58.3649 46.6626C58.313 46.6981 58.2536 46.7209 58.1913 46.7293C58.1465 46.7284 58.1024 46.7183 58.0618 46.6995C58.0019 46.6724 57.9451 46.639 57.8924 46.5998C57.4851 46.311 57.039 46.0813 56.5674 45.9174C56.0751 45.7498 55.5582 45.6656 55.0381 45.6683C54.3681 45.6627 53.7044 45.7985 53.0905 46.0668C51.9253 46.5723 50.9995 47.507 50.5052 48.677C50.2575 49.2529 50.1304 49.8733 50.1316 50.5002C50.1273 51.1492 50.2579 51.7921 50.5151 52.3881C51.0045 53.5371 51.9206 54.4513 53.0705 54.9385C53.6563 55.1881 54.2869 55.3152 54.9236 55.3121C55.3431 55.3096 55.7598 55.2424 56.1589 55.1128C56.5724 54.9783 56.9858 54.8239 57.4092 54.6147L57.4341 51.5462Z" fill="#2F4E9D"/>
<path d="M73.5237 56.7367C73.4732 56.7434 73.4219 56.7384 73.3738 56.7219C73.3257 56.7054 73.282 56.6779 73.2463 56.6417C73.2106 56.6055 73.1837 56.5615 73.1679 56.5132C73.1521 56.4648 73.1477 56.4135 73.155 56.3631V55.337C72.6689 55.8323 72.0923 56.2296 71.4564 56.5076C70.7941 56.7918 70.0801 56.936 69.3593 56.931C68.866 56.9306 68.3751 56.8636 67.8998 56.7318C67.4348 56.5999 66.9881 56.4109 66.5698 56.1689C65.7514 55.6793 65.0669 54.9948 64.5773 54.1764C64.328 53.7605 64.1354 53.3132 64.0044 52.8464C63.7389 51.883 63.7389 50.8658 64.0044 49.9024C64.1372 49.4362 64.3298 48.9892 64.5773 48.5724C65.0655 47.753 65.7503 47.0682 66.5698 46.5799C67.4114 46.0721 68.3763 45.805 69.3593 45.8078C70.0807 45.8019 70.7952 45.9478 71.4564 46.2362C72.0916 46.5177 72.6679 46.9165 73.155 47.4118V43.1378C73.1543 43.0396 73.1918 42.9449 73.2596 42.8738C73.2972 42.8374 73.3417 42.8089 73.3904 42.7901C73.4392 42.7712 73.4913 42.7625 73.5436 42.7642H74.4253C74.5235 42.7635 74.6182 42.801 74.6893 42.8689C74.7253 42.9036 74.7536 42.9454 74.7725 42.9918C74.7914 43.0381 74.8004 43.0878 74.7989 43.1378V56.3631C74.7989 56.6122 74.6644 56.7367 74.4004 56.7367H73.5237ZM73.2397 51.3669C73.2364 50.8533 73.1315 50.3454 72.9309 49.8725C72.7359 49.3973 72.4556 48.9618 72.104 48.5873C71.7516 48.2168 71.3325 47.916 70.8686 47.7007C70.4006 47.4831 69.8904 47.3708 69.3742 47.3719C68.8579 47.3695 68.3475 47.4818 67.8799 47.7007C67.4203 47.9159 67.0061 48.2168 66.6595 48.5873C66.3077 48.9607 66.0289 49.3966 65.8375 49.8725C65.6427 50.3468 65.5412 50.8542 65.5387 51.3669C65.5358 51.8898 65.6374 52.4081 65.8375 52.8912C66.0292 53.361 66.3081 53.7903 66.6595 54.1564C67.0072 54.5206 67.4215 54.8148 67.8799 55.0232C68.3489 55.2368 68.8589 55.3455 69.3742 55.342C69.8895 55.3441 70.3991 55.2354 70.8686 55.0232C71.3316 54.815 71.7508 54.5209 72.104 54.1564C72.4553 53.7893 72.7356 53.3603 72.9309 52.8912C73.1367 52.4095 73.2418 51.8907 73.2397 51.3669Z" fill="#2F4E9D"/>
<path d="M77.0105 56.4229C76.9747 56.5125 76.9164 56.5914 76.8412 56.652C76.7601 56.7102 76.662 56.74 76.5622 56.7367H75.6656C75.4016 56.7367 75.2721 56.6371 75.2721 56.4378C75.2693 56.4047 75.2693 56.3714 75.2721 56.3382C75.2698 56.315 75.2698 56.2917 75.2721 56.2685V56.2087L80.1637 44.4529C80.1804 44.4205 80.1954 44.3873 80.2085 44.3533C80.2254 44.316 80.249 44.2822 80.2783 44.2537C80.3114 44.2182 80.3523 44.1909 80.3978 44.1739C80.4677 44.1475 80.5423 44.1356 80.617 44.1391H81.1749C81.2463 44.1355 81.3177 44.1474 81.3841 44.1739C81.431 44.1909 81.4736 44.2181 81.5086 44.2537C81.5347 44.2837 81.5565 44.3172 81.5734 44.3533L81.6182 44.4529L86.47 56.2087V56.2934V56.3731C86.4741 56.3945 86.4741 56.4165 86.47 56.4378C86.47 56.6371 86.3405 56.7367 86.0814 56.7367H85.2595C85.1599 56.7393 85.062 56.7095 84.9806 56.652C84.9054 56.5914 84.8471 56.5125 84.8112 56.4229L83.8797 54.0867H77.9022C77.7079 54.5848 77.5236 55.0481 77.3592 55.4565C77.1949 55.865 77.0902 56.1838 77.0105 56.4229ZM78.5996 52.4379H83.2222L80.9308 46.6347L78.5996 52.4379Z" fill="#2F4E9D"/>
<path d="M88.8759 47.362C89.3631 46.8667 89.9394 46.4678 90.5745 46.1864C91.236 45.8986 91.9504 45.7526 92.6717 45.758C93.1682 45.7579 93.6625 45.8249 94.1411 45.9572C94.6051 46.0896 95.0503 46.2804 95.4661 46.5251C95.8779 46.7652 96.2564 47.0583 96.5919 47.3968C96.9309 47.7344 97.2271 48.1125 97.4736 48.5226C97.7192 48.9397 97.9101 49.3867 98.0415 49.8526C98.307 50.8159 98.307 51.8332 98.0415 52.7965C97.9101 53.2624 97.7192 53.7094 97.4736 54.1265C97.2297 54.5399 96.9334 54.92 96.5919 55.2573C95.9142 55.9469 95.0674 56.4467 94.1362 56.7068C93.6591 56.8386 93.1665 56.9055 92.6717 56.9061C91.9504 56.9114 91.236 56.7655 90.5745 56.4777C89.9394 56.1962 89.3631 55.7974 88.8759 55.3021V59.6259C88.8767 59.6764 88.867 59.7266 88.8476 59.7732C88.8281 59.8199 88.7993 59.862 88.7628 59.8971C88.7264 59.9321 88.6831 59.9593 88.6358 59.9769C88.5884 59.9945 88.5379 60.0022 88.4874 59.9995H87.6057C87.5083 60.0005 87.4141 59.9649 87.3417 59.8998C87.3048 59.8647 87.2759 59.8221 87.257 59.7748C87.238 59.7275 87.2296 59.6767 87.2321 59.6259V46.3258C87.2321 46.0768 87.3666 45.9522 87.6306 45.9522H88.5023C88.5531 45.9447 88.605 45.9491 88.6538 45.9652C88.7026 45.9813 88.7469 46.0086 88.7832 46.0449C88.8195 46.0813 88.8468 46.1256 88.8629 46.1744C88.879 46.2232 88.8835 46.275 88.8759 46.3258V47.362ZM88.7912 51.3221C88.7912 51.8441 88.8962 52.3608 89.1001 52.8414C89.4869 53.7991 90.2219 54.575 91.1573 55.0132C91.6256 55.2302 92.1356 55.3424 92.6517 55.3419C93.1681 55.3443 93.6785 55.2321 94.1461 55.0132C94.6057 54.798 95.0199 54.4971 95.3665 54.1265C95.7183 53.7532 95.9971 53.3173 96.1884 52.8414C96.389 52.36 96.4923 51.8436 96.4923 51.3221C96.4923 50.8006 96.389 50.2842 96.1884 49.8028C95.9968 49.3314 95.718 48.9005 95.3665 48.5325C95.0161 48.1714 94.6025 47.8777 94.1461 47.6658C93.677 47.4525 93.1671 47.3437 92.6517 47.347C92.1366 47.3456 91.6271 47.4543 91.1573 47.6658C90.6987 47.8788 90.282 48.1724 89.927 48.5325C89.574 48.9002 89.2934 49.3311 89.1001 49.8028C88.8977 50.2785 88.7927 50.7901 88.7912 51.3071V51.3221Z" fill="#2F4E9D"/>
<path d="M100.861 47.362C101.347 46.8659 101.924 46.467 102.559 46.1864C103.221 45.8986 103.935 45.7526 104.657 45.758C105.153 45.7582 105.647 45.8252 106.126 45.9572C106.59 46.0896 107.035 46.2804 107.451 46.5251C107.863 46.7652 108.241 47.0583 108.577 47.3968C108.914 47.7357 109.21 48.1136 109.459 48.5226C109.704 48.9397 109.895 49.3867 110.026 49.8526C110.292 50.8159 110.292 51.8332 110.026 52.7965C109.895 53.2624 109.704 53.7094 109.459 54.1265C109.213 54.5387 108.917 54.9186 108.577 55.2573C107.899 55.9469 107.052 56.4467 106.121 56.7068C105.644 56.8386 105.151 56.9055 104.657 56.9061C103.935 56.9114 103.221 56.7655 102.559 56.4777C101.924 56.1971 101.347 55.7981 100.861 55.3021V59.6259C100.862 59.6764 100.852 59.7266 100.833 59.7732C100.813 59.8199 100.784 59.862 100.748 59.8971C100.711 59.9321 100.668 59.9593 100.621 59.9769C100.573 59.9945 100.523 60.0022 100.472 59.9995H99.5906C99.4933 60.0005 99.399 59.9649 99.3266 59.8998C99.2897 59.8647 99.2608 59.8221 99.2419 59.7748C99.223 59.7275 99.2145 59.6767 99.2171 59.6259V46.3258C99.2171 46.0768 99.3516 45.9522 99.6156 45.9522H100.487C100.538 45.9447 100.59 45.9491 100.639 45.9652C100.688 45.9813 100.732 46.0086 100.768 46.0449C100.804 46.0813 100.832 46.1256 100.848 46.1744C100.864 46.2232 100.868 46.275 100.861 46.3258V47.362ZM100.776 51.3221C100.777 51.8435 100.88 52.3597 101.08 52.8414C101.277 53.3168 101.559 53.7523 101.912 54.1265C102.263 54.4958 102.681 54.7965 103.142 55.0132C103.612 55.2268 104.121 55.3374 104.637 55.3374C105.152 55.3374 105.662 55.2268 106.131 55.0132C106.59 54.7964 107.004 54.4956 107.351 54.1265C107.703 53.7532 107.982 53.3173 108.173 52.8414C108.374 52.36 108.477 51.8436 108.477 51.3221C108.477 50.8006 108.374 50.2842 108.173 49.8028C107.982 49.3314 107.703 48.9005 107.351 48.5325C107 48.1725 106.587 47.8789 106.131 47.6658C105.66 47.4586 105.151 47.3516 104.637 47.3516C104.122 47.3516 103.613 47.4586 103.142 47.6658C102.684 47.8788 102.267 48.1724 101.912 48.5325C101.559 48.9013 101.277 49.3319 101.08 49.8028C100.882 50.2796 100.778 50.7906 100.776 51.3071V51.3221Z" fill="#2F4E9D"/>
</svg>