<svg width="25" height="20" viewBox="0 0 25 20" fill="none" xmlns="http://www.w3.org/2000/svg">
<path d="M24.8542 2.35294C23.9483 2.76471 22.9718 3.03529 21.9601 3.16471C22.9954 2.54118 23.7954 1.55294 24.1718 0.364706C23.1954 0.952941 22.113 1.36471 20.9718 1.6C20.0424 0.588235 18.7365 0 17.2542 0C14.4895 0 12.2307 2.25882 12.2307 5.04706C12.2307 5.44706 12.2777 5.83529 12.3601 6.2C8.17184 5.98824 4.44243 3.97647 1.96008 0.929412C1.52478 1.67059 1.27773 2.54118 1.27773 3.45882C1.27773 5.21176 2.16008 6.76471 3.52478 7.64706C2.68949 7.64706 1.91302 7.41177 1.23067 7.05882V7.09412C1.23067 9.54118 2.97184 11.5882 5.27773 12.0471C4.5374 12.2497 3.76019 12.2778 3.00714 12.1294C3.32667 13.1323 3.95247 14.0099 4.79657 14.6387C5.64066 15.2676 6.6606 15.6161 7.71302 15.6353C5.92905 17.0476 3.71772 17.811 1.44243 17.8C1.04243 17.8 0.642432 17.7765 0.242432 17.7294C2.47773 19.1647 5.13655 20 7.98361 20C17.2542 20 22.3483 12.3059 22.3483 5.63529C22.3483 5.41177 22.3483 5.2 22.3365 4.97647C23.3248 4.27059 24.1718 3.37647 24.8542 2.35294Z" fill="black"/>
</svg>
