<svg width="27" height="20" viewBox="0 0 27 20" fill="none" xmlns="http://www.w3.org/2000/svg">
<path d="M22.2044 1.66212C20.5423 0.887325 18.7428 0.324972 16.8683 5.74827e-05C16.8519 -0.000468134 16.8355 0.00261616 16.8204 0.00909357C16.8053 0.015571 16.7918 0.0252842 16.7808 0.0375479C16.5559 0.44994 16.2934 0.987299 16.1185 1.39969C14.1303 1.09977 12.1083 1.09977 10.1201 1.39969C9.9451 0.974802 9.68267 0.44994 9.44523 0.0375479C9.43274 0.0125545 9.39525 5.74827e-05 9.35776 5.74827e-05C7.48325 0.324972 5.69621 0.887325 4.02165 1.66212C4.00916 1.66212 3.99666 1.67462 3.98416 1.68712C0.585052 6.77328 -0.352203 11.722 0.110176 16.6207C0.110176 16.6457 0.122673 16.6707 0.147666 16.6832C2.39708 18.3328 4.55901 19.3325 6.69595 19.9948C6.73344 20.0073 6.77093 19.9948 6.78343 19.9698C7.2833 19.2825 7.73318 18.5577 8.12058 17.7954C8.14557 17.7454 8.12058 17.6954 8.07059 17.6829C7.35828 17.408 6.68346 17.0831 6.02113 16.7082C5.97114 16.6832 5.97114 16.6082 6.00863 16.5707C6.1461 16.4707 6.28356 16.3583 6.42102 16.2583C6.44602 16.2333 6.48351 16.2333 6.5085 16.2458C10.8074 18.2078 15.4437 18.2078 19.6926 16.2458C19.7175 16.2333 19.755 16.2333 19.78 16.2583C19.9175 16.3708 20.055 16.4707 20.1924 16.5832C20.2424 16.6207 20.2424 16.6957 20.1799 16.7207C19.5301 17.1081 18.8428 17.4205 18.1305 17.6954C18.0805 17.7079 18.068 17.7704 18.0805 17.8079C18.4804 18.5702 18.9303 19.295 19.4176 19.9823C19.4551 19.9948 19.4926 20.0073 19.5301 19.9948C21.6795 19.3325 23.8415 18.3328 26.0909 16.6832C26.1159 16.6707 26.1284 16.6457 26.1284 16.6207C26.6782 10.9597 25.2161 6.04847 22.2544 1.68712C22.2419 1.67462 22.2294 1.66212 22.2044 1.66212ZM8.77041 13.634C7.48325 13.634 6.40853 12.4468 6.40853 10.9847C6.40853 9.52256 7.45825 8.33538 8.77041 8.33538C10.0951 8.33538 11.1448 9.53506 11.1323 10.9847C11.1323 12.4468 10.0826 13.634 8.77041 13.634ZM17.4806 13.634C16.1935 13.634 15.1187 12.4468 15.1187 10.9847C15.1187 9.52256 16.1685 8.33538 17.4806 8.33538C18.8053 8.33538 19.855 9.53506 19.8425 10.9847C19.8425 12.4468 18.8053 13.634 17.4806 13.634Z" fill="white"/>
</svg>
