<svg width="25" height="20" viewBox="0 0 25 20" fill="none" xmlns="http://www.w3.org/2000/svg">
<path d="M24.8539 2.35294C23.9481 2.76471 22.9716 3.03529 21.9598 3.16471C22.9951 2.54118 23.7951 1.55294 24.1716 0.364706C23.1951 0.952941 22.1128 1.36471 20.9716 1.6C20.0422 0.588235 18.7363 0 17.254 0C14.4892 0 12.2304 2.25882 12.2304 5.04706C12.2304 5.44706 12.2775 5.83529 12.3598 6.2C8.1716 5.98824 4.44219 3.97647 1.95983 0.929412C1.52454 1.67059 1.27748 2.54118 1.27748 3.45882C1.27748 5.21176 2.15983 6.76471 3.52454 7.64706C2.68925 7.64706 1.91278 7.41177 1.23042 7.05882V7.09412C1.23042 9.54118 2.9716 11.5882 5.27748 12.0471C4.53716 12.2497 3.75995 12.2778 3.00689 12.1294C3.32643 13.1323 3.95223 14.0099 4.79632 14.6387C5.64042 15.2676 6.66036 15.6161 7.71278 15.6353C5.92881 17.0476 3.71748 17.811 1.44219 17.8C1.04219 17.8 0.642187 17.7765 0.242188 17.7294C2.47748 19.1647 5.1363 20 7.98336 20C17.254 20 22.3481 12.3059 22.3481 5.63529C22.3481 5.41177 22.3481 5.2 22.3363 4.97647C23.3245 4.27059 24.1716 3.37647 24.8539 2.35294Z" fill="white"/>
</svg>
