<svg width="20" height="20" viewBox="0 0 26 26" fill="none" xmlns="http://www.w3.org/2000/svg">
<path d="M13 5.2C11.4573 5.2 9.94925 5.65746 8.66655 6.51454C7.38385 7.37161 6.3841 8.58981 5.79374 10.0151C5.20338 11.4403 5.04891 13.0087 5.34987 14.5217C5.65084 16.0348 6.39372 17.4246 7.48457 18.5154C8.57542 19.6063 9.96524 20.3492 11.4783 20.6501C12.9913 20.9511 14.5597 20.7966 15.9849 20.2063C17.4102 19.6159 18.6284 18.6162 19.4855 17.3334C20.3425 16.0507 20.8 14.5427 20.8 13C20.7971 10.9322 19.9744 8.9499 18.5123 7.48773C17.0501 6.02557 15.0678 5.20287 13 5.2ZM13 18.2C11.9715 18.2 10.9662 17.895 10.111 17.3236C9.2559 16.7523 8.5894 15.9401 8.19583 14.99C7.80225 14.0398 7.69927 12.9942 7.89992 11.9855C8.10056 10.9768 8.59581 10.0503 9.32304 9.32304C10.0503 8.59581 10.9768 8.10056 11.9855 7.89992C12.9942 7.69927 14.0398 7.80225 14.99 8.19583C15.9401 8.5894 16.7523 9.2559 17.3236 10.111C17.895 10.9662 18.2 11.9715 18.2 13C18.2 14.3791 17.6521 15.7018 16.677 16.677C15.7018 17.6521 14.3791 18.2 13 18.2ZM11.7 2.16667V1.3C11.7 0.955219 11.837 0.624559 12.0808 0.380761C12.3246 0.136964 12.6552 0 13 0C13.3448 0 13.6754 0.136964 13.9192 0.380761C14.163 0.624559 14.3 0.955219 14.3 1.3V2.16667C14.3 2.51145 14.163 2.84211 13.9192 3.08591C13.6754 3.3297 13.3448 3.46667 13 3.46667C12.6552 3.46667 12.3246 3.3297 12.0808 3.08591C11.837 2.84211 11.7 2.51145 11.7 2.16667ZM19.7383 6.26167C19.6171 6.14089 19.521 5.99738 19.4554 5.83936C19.3897 5.68135 19.356 5.51193 19.356 5.34083C19.356 5.16973 19.3897 5.00032 19.4554 4.8423C19.521 4.68429 19.6171 4.54077 19.7383 4.42L20.3558 3.8025C20.6001 3.55828 20.9313 3.42108 21.2767 3.42108C21.622 3.42108 21.9533 3.55828 22.1975 3.8025C22.4417 4.04672 22.5789 4.37795 22.5789 4.72333C22.5789 5.06871 22.4417 5.39995 22.1975 5.64417L21.58 6.26167C21.459 6.38229 21.3153 6.47786 21.1573 6.54292C20.9993 6.60798 20.83 6.64125 20.6592 6.64083C20.3145 6.63934 19.9841 6.50328 19.7383 6.26167ZM26 13C26 13.3448 25.863 13.6754 25.6192 13.9192C25.3754 14.163 25.0448 14.3 24.7 14.3H23.8333C23.4886 14.3 23.1579 14.163 22.9141 13.9192C22.6703 13.6754 22.5333 13.3448 22.5333 13C22.5333 12.6552 22.6703 12.3246 22.9141 12.0808C23.1579 11.837 23.4886 11.7 23.8333 11.7H24.7C25.0448 11.7 25.3754 11.837 25.6192 12.0808C25.863 12.3246 26 12.6552 26 13ZM22.1975 20.3558C22.4371 20.6025 22.5711 20.9328 22.5711 21.2767C22.5711 21.6205 22.4371 21.9508 22.1975 22.1975C21.9505 22.4372 21.6209 22.5729 21.2767 22.5767C21.1058 22.5771 20.9365 22.5438 20.7785 22.4788C20.6205 22.4137 20.4769 22.3181 20.3558 22.1975L19.7383 21.58C19.4941 21.3358 19.3569 21.0045 19.3569 20.6592C19.3569 20.3138 19.4941 19.9826 19.7383 19.7383C19.9826 19.4941 20.3138 19.3569 20.6592 19.3569C21.0045 19.3569 21.3358 19.4941 21.58 19.7383L22.1975 20.3558ZM14.3 23.8333V24.7C14.3 25.0448 14.163 25.3754 13.9192 25.6192C13.6754 25.863 13.3448 26 13 26C12.6552 26 12.3246 25.863 12.0808 25.6192C11.837 25.3754 11.7 25.0448 11.7 24.7V23.8333C11.7 23.4886 11.837 23.1579 12.0808 22.9141C12.3246 22.6703 12.6552 22.5333 13 22.5333C13.3448 22.5333 13.6754 22.6703 13.9192 22.9141C14.163 23.1579 14.3 23.4886 14.3 23.8333ZM6.26167 19.7383C6.38286 19.8591 6.47902 20.0026 6.54464 20.1606C6.61025 20.3187 6.64402 20.4881 6.64402 20.6592C6.64402 20.8303 6.61025 20.9997 6.54464 21.1577C6.47902 21.3157 6.38286 21.4592 6.26167 21.58L5.64417 22.1975C5.52313 22.3181 5.3795 22.4137 5.2215 22.4788C5.06349 22.5438 4.89421 22.5771 4.72333 22.5767C4.37915 22.5729 4.04953 22.4372 3.8025 22.1975C3.56293 21.9508 3.42892 21.6205 3.42892 21.2767C3.42892 20.9328 3.56293 20.6025 3.8025 20.3558L4.42 19.7383C4.54077 19.6171 4.68429 19.521 4.8423 19.4554C5.00032 19.3897 5.16973 19.356 5.34083 19.356C5.51193 19.356 5.68135 19.3897 5.83936 19.4554C5.99738 19.521 6.14089 19.6171 6.26167 19.7383ZM3.46667 13C3.46667 13.3448 3.3297 13.6754 3.08591 13.9192C2.84211 14.163 2.51145 14.3 2.16667 14.3H1.3C0.955219 14.3 0.624559 14.163 0.380761 13.9192C0.136964 13.6754 0 13.3448 0 13C0 12.6552 0.136964 12.3246 0.380761 12.0808C0.624559 11.837 0.955219 11.7 1.3 11.7H2.16667C2.51145 11.7 2.84211 11.837 3.08591 12.0808C3.3297 12.3246 3.46667 12.6552 3.46667 13ZM3.8025 5.64417C3.55828 5.39995 3.42108 5.06871 3.42108 4.72333C3.42108 4.37795 3.55828 4.04672 3.8025 3.8025C4.04672 3.55828 4.37795 3.42108 4.72333 3.42108C5.06871 3.42108 5.39995 3.55828 5.64417 3.8025L6.26167 4.42C6.38286 4.54077 6.47902 4.68429 6.54464 4.8423C6.61025 5.00032 6.64402 5.16973 6.64402 5.34083C6.64402 5.51193 6.61025 5.68135 6.54464 5.83936C6.47902 5.99738 6.38286 6.14089 6.26167 6.26167C6.0159 6.50328 5.68547 6.63934 5.34083 6.64083C5.16996 6.64125 5.00068 6.60798 4.84267 6.54292C4.68467 6.47786 4.54104 6.38229 4.42 6.26167L3.8025 5.64417Z" fill="#131313"/>
</svg>
