<svg width="20" height="20" viewBox="0 0 20 20" fill="none" xmlns="http://www.w3.org/2000/svg">
<path d="M19.9482 11.9035C19.8743 11.661 19.7238 11.449 19.5194 11.2992C19.3149 11.1494 19.0675 11.0699 18.8141 11.0724C18.7042 11.076 18.5955 11.0957 18.4914 11.1311C17.159 11.4968 15.7535 11.503 14.4179 11.1491C13.0823 10.7953 11.8643 10.0939 10.8878 9.11639C9.9113 8.13889 9.21117 6.92016 8.85864 5.58421C8.50611 4.24826 8.51376 2.84276 8.88083 1.51072C8.90341 1.4211 8.91652 1.32934 8.91993 1.23697C8.93359 0.992171 8.8702 0.749242 8.73868 0.542319C8.60716 0.335395 8.41412 0.174875 8.18668 0.0833117C7.94009 -0.012295 7.66929 -0.0260068 7.41431 0.0442043C5.70616 0.524744 4.15351 1.44394 2.91067 2.71043C1.66782 3.97693 0.77805 5.54663 0.329788 7.26353C-0.118473 8.98042 -0.10962 10.7847 0.355469 12.4972C0.820558 14.2096 1.72569 15.7705 2.9809 17.0247C4.23612 18.2789 5.79772 19.1829 7.51049 19.6466C9.22327 20.1104 11.0276 20.1178 12.7441 19.6682C14.4607 19.2186 16.0297 18.3276 17.2952 17.0838C18.5607 15.8399 19.4787 14.2866 19.9579 12.5781C20.018 12.3567 20.0147 12.123 19.9482 11.9035ZM10.1616 17.662C8.43696 17.6643 6.75994 17.0964 5.39145 16.0469C4.02295 14.9973 3.03971 13.5249 2.59472 11.8587C2.14972 10.1925 2.26791 8.42587 2.93091 6.83377C3.59391 5.24168 4.76453 3.91335 6.26064 3.05546C6.18915 4.47766 6.41661 5.89904 6.92834 7.22791C7.44007 8.55678 8.22471 9.7636 9.23163 10.7705C10.2385 11.7774 11.4454 12.5621 12.7742 13.0738C14.1031 13.5855 15.5245 13.813 16.9467 13.7415C16.2574 14.9314 15.2681 15.9196 14.0775 16.6075C12.8869 17.2955 11.5367 17.6591 10.1616 17.662Z" fill="white"/>
</svg>