<svg width="22" height="22" viewBox="0 0 22 22" fill="none" xmlns="http://www.w3.org/2000/svg">
<path d="M6.11111 12.2222C5.78696 12.2222 5.47608 12.0935 5.24687 11.8642C5.01766 11.635 4.88889 11.3242 4.88889 11C4.88889 10.6758 5.01766 10.365 5.24687 10.1358C5.47608 9.90655 5.78696 9.77778 6.11111 9.77778C6.43526 9.77778 6.74614 9.90655 6.97535 10.1358C7.20456 10.365 7.33333 10.6758 7.33333 11C7.33333 11.3242 7.20456 11.635 6.97535 11.8642C6.74614 12.0935 6.43526 12.2222 6.11111 12.2222ZM6.11111 17.1111C5.78696 17.1111 5.47608 16.9823 5.24687 16.7531C5.01766 16.5239 4.88889 16.213 4.88889 15.8889C4.88889 15.5647 5.01766 15.2539 5.24687 15.0246C5.47608 14.7954 5.78696 14.6667 6.11111 14.6667C6.43526 14.6667 6.74614 14.7954 6.97535 15.0246C7.20456 15.2539 7.33333 15.5647 7.33333 15.8889C7.33333 16.213 7.20456 16.5239 6.97535 16.7531C6.74614 16.9823 6.43526 17.1111 6.11111 17.1111ZM9.77778 15.8889C9.77778 16.213 9.90655 16.5239 10.1358 16.7531C10.365 16.9823 10.6758 17.1111 11 17.1111C11.3242 17.1111 11.635 16.9823 11.8642 16.7531C12.0935 16.5239 12.2222 16.213 12.2222 15.8889C12.2222 15.5647 12.0935 15.2539 11.8642 15.0246C11.635 14.7954 11.3242 14.6667 11 14.6667C10.6758 14.6667 10.365 14.7954 10.1358 15.0246C9.90655 15.2539 9.77778 15.5647 9.77778 15.8889ZM15.8889 17.1111C15.5647 17.1111 15.2539 16.9823 15.0246 16.7531C14.7954 16.5239 14.6667 16.213 14.6667 15.8889C14.6667 15.5647 14.7954 15.2539 15.0246 15.0246C15.2539 14.7954 15.5647 14.6667 15.8889 14.6667C16.213 14.6667 16.5239 14.7954 16.7531 15.0246C16.9823 15.2539 17.1111 15.5647 17.1111 15.8889C17.1111 16.213 16.9823 16.5239 16.7531 16.7531C16.5239 16.9823 16.213 17.1111 15.8889 17.1111ZM9.77778 11C9.77778 11.3242 9.90655 11.635 10.1358 11.8642C10.365 12.0935 10.6758 12.2222 11 12.2222C11.3242 12.2222 11.635 12.0935 11.8642 11.8642C12.0935 11.635 12.2222 11.3242 12.2222 11C12.2222 10.6758 12.0935 10.365 11.8642 10.1358C11.635 9.90655 11.3242 9.77778 11 9.77778C10.6758 9.77778 10.365 9.90655 10.1358 10.1358C9.90655 10.365 9.77778 10.6758 9.77778 11ZM15.8889 12.2222C15.5647 12.2222 15.2539 12.0935 15.0246 11.8642C14.7954 11.635 14.6667 11.3242 14.6667 11C14.6667 10.6758 14.7954 10.365 15.0246 10.1358C15.2539 9.90655 15.5647 9.77778 15.8889 9.77778C16.213 9.77778 16.5239 9.90655 16.7531 10.1358C16.9823 10.365 17.1111 10.6758 17.1111 11C17.1111 11.3242 16.9823 11.635 16.7531 11.8642C16.5239 12.0935 16.213 12.2222 15.8889 12.2222ZM6.11111 4.88889C5.78696 4.88889 5.47608 5.01766 5.24687 5.24687C5.01766 5.47608 4.88889 5.78696 4.88889 6.11111C4.88889 6.43526 5.01766 6.74614 5.24687 6.97535C5.47608 7.20456 5.78696 7.33333 6.11111 7.33333H15.8889C16.213 7.33333 16.5239 7.20456 16.7531 6.97535C16.9823 6.74614 17.1111 6.43526 17.1111 6.11111C17.1111 5.78696 16.9823 5.47608 16.7531 5.24687C16.5239 5.01766 16.213 4.88889 15.8889 4.88889H6.11111Z" fill="#484848"/>
<path fill-rule="evenodd" clip-rule="evenodd" d="M3.66667 0C2.69421 0 1.76158 0.386309 1.07394 1.07394C0.386309 1.76158 0 2.69421 0 3.66667V18.3333C0 19.3058 0.386309 20.2384 1.07394 20.9261C1.76158 21.6137 2.69421 22 3.66667 22H18.3333C19.3058 22 20.2384 21.6137 20.9261 20.9261C21.6137 20.2384 22 19.3058 22 18.3333V3.66667C22 2.69421 21.6137 1.76158 20.9261 1.07394C20.2384 0.386309 19.3058 0 18.3333 0H3.66667ZM18.3333 2.44444H3.66667C3.34251 2.44444 3.03164 2.57321 2.80243 2.80243C2.57321 3.03164 2.44444 3.34251 2.44444 3.66667V18.3333C2.44444 18.6575 2.57321 18.9684 2.80243 19.1976C3.03164 19.4268 3.34251 19.5556 3.66667 19.5556H18.3333C18.6575 19.5556 18.9684 19.4268 19.1976 19.1976C19.4268 18.9684 19.5556 18.6575 19.5556 18.3333V3.66667C19.5556 3.34251 19.4268 3.03164 19.1976 2.80243C18.9684 2.57321 18.6575 2.44444 18.3333 2.44444Z" fill="#484848"/>
</svg>
