<svg width="18" height="12" viewBox="0 0 18 12" fill="none" xmlns="http://www.w3.org/2000/svg">
<path fill-rule="evenodd" clip-rule="evenodd" d="M2.70493 2.7208C4.21703 1.42419 6.44267 0 9 0C11.5573 0 13.783 1.42419 15.2951 2.7208C16.0653 3.38126 16.6861 4.03935 17.1148 4.53228C17.3297 4.77942 17.4978 4.9868 17.6138 5.13458C17.6718 5.20852 17.7169 5.26768 17.7484 5.3096C17.7641 5.33056 17.7765 5.34722 17.7854 5.35928L17.7961 5.37388L17.7994 5.37852L17.8011 5.38081C17.8013 5.38109 17.8015 5.38135 17 6C17.8015 6.61865 17.8013 6.61891 17.8011 6.61919L17.7994 6.62148L17.7961 6.62612L17.7854 6.64072C17.7765 6.65278 17.7641 6.66944 17.7484 6.6904C17.7169 6.73232 17.6718 6.79148 17.6138 6.86542C17.4978 7.0132 17.3297 7.22058 17.1148 7.46772C16.6861 7.96065 16.0653 8.61874 15.2951 9.2792C13.783 10.5758 11.5573 12 9 12C6.44267 12 4.21703 10.5758 2.70493 9.2792C1.9347 8.61874 1.31387 7.96065 0.885214 7.46772C0.670307 7.22058 0.50218 7.0132 0.386191 6.86542C0.32816 6.79148 0.283071 6.73232 0.251595 6.6904C0.235853 6.66944 0.223505 6.65278 0.214636 6.64072L0.203946 6.62612L0.200574 6.62148L0.199385 6.61984L0.198915 6.61919C0.198714 6.61891 0.198528 6.61865 1 6C0.198528 5.38135 0.198714 5.38109 0.198915 5.38081L0.199385 5.38016L0.200574 5.37852L0.203946 5.37388L0.214636 5.35928C0.223505 5.34722 0.235853 5.33056 0.251595 5.3096C0.283071 5.26768 0.32816 5.20852 0.386191 5.13458C0.50218 4.9868 0.670307 4.77942 0.885214 4.53228C1.31387 4.03935 1.9347 3.38126 2.70493 2.7208ZM1 6L0.198528 5.38135C-0.0661759 5.74833 -0.0661759 6.25167 0.198528 6.61865L1 6ZM2.29959 6C2.323 6.02732 2.34718 6.05534 2.37211 6.08401C2.75308 6.52211 3.3038 7.1054 3.98127 7.68631C5.36457 8.87247 7.13893 9.93103 9 9.93103C10.8611 9.93103 12.6354 8.87247 14.0187 7.68631C14.6962 7.1054 15.2469 6.52211 15.6279 6.08401C15.6528 6.05534 15.677 6.02732 15.7004 6C15.677 5.97268 15.6528 5.94466 15.6279 5.91599C15.2469 5.47789 14.6962 4.8946 14.0187 4.31369C12.6354 3.12753 10.8611 2.06897 9 2.06897C7.13893 2.06897 5.36457 3.12753 3.98127 4.31369C3.3038 4.8946 2.75308 5.47789 2.37211 5.91599C2.34718 5.94466 2.323 5.97268 2.29959 6ZM17 6L17.8015 6.61865C18.0662 6.25167 18.0662 5.74833 17.8015 5.38135L17 6ZM6.87868 3.80553C7.44129 3.22352 8.20435 2.89655 9 2.89655C9.79565 2.89655 10.5587 3.22352 11.1213 3.80553C11.6839 4.38754 12 5.17691 12 6C12 6.82309 11.6839 7.61246 11.1213 8.19447C10.5587 8.77648 9.79565 9.10345 9 9.10345C8.20435 9.10345 7.44129 8.77648 6.87868 8.19447C6.31607 7.61246 6 6.82309 6 6C6 5.17691 6.31607 4.38754 6.87868 3.80553ZM9 4.96552C8.73478 4.96552 8.48043 5.07451 8.29289 5.26851C8.10536 5.46251 8 5.72564 8 6C8 6.27436 8.10536 6.53749 8.29289 6.73149C8.48043 6.92549 8.73478 7.03448 9 7.03448C9.26522 7.03448 9.51957 6.92549 9.70711 6.73149C9.89464 6.53749 10 6.27436 10 6C10 5.72564 9.89464 5.46251 9.70711 5.26851C9.51957 5.07451 9.26522 4.96552 9 4.96552Z" fill="white"/>
</svg>
