<svg width="20" height="18" viewBox="0 0 20 18" fill="none" xmlns="http://www.w3.org/2000/svg">
<path d="M18.2497 0.0318516C18.4278 -0.0141944 18.6151 -0.0102492 18.791 0.0432537C18.967 0.0967566 19.1247 0.197745 19.247 0.335113C19.3693 0.472481 19.4513 0.640909 19.4841 0.821875C19.5168 1.00284 19.4991 1.18934 19.4327 1.36085L13.4327 16.8609C13.3734 17.0144 13.277 17.1509 13.1523 17.2582C13.0275 17.3656 12.8782 17.4405 12.7175 17.4763C12.5569 17.5121 12.3899 17.5077 12.2314 17.4635C12.0728 17.4193 11.9276 17.3366 11.8087 17.2229L8.42671 13.9879L7.2237 15.1899C6.5877 15.8259 5.4997 15.3759 5.4997 14.4759V11.1879L0.308705 6.22285C0.179908 6.09963 0.0863882 5.94422 0.0378268 5.77272C-0.0107346 5.60121 -0.0125722 5.41984 0.0325043 5.24739C0.0775809 5.07494 0.167933 4.91767 0.294207 4.79186C0.42048 4.66606 0.578085 4.57629 0.750705 4.53185L18.2507 0.0318516H18.2497ZM16.1357 4.33685L8.1377 10.9439L12.1077 14.7419L16.1357 4.33685V4.33685ZM14.5577 3.04685L2.99071 6.01985L6.6827 9.54985L14.5577 3.04485V3.04685Z" fill="white"/>
</svg>
