<svg width="20" height="20" viewBox="0 0 20 20" fill="none" xmlns="http://www.w3.org/2000/svg">
<path d="M2.5 20C1.8125 20 1.22417 19.7554 0.735 19.2663C0.245 18.7763 0 18.1875 0 17.5V15C0 14.3096 0.559644 13.75 1.25 13.75C1.94036 13.75 2.5 14.3096 2.5 15V17.5H17.5V15C17.5 14.3096 18.0596 13.75 18.75 13.75C19.4404 13.75 20 14.3096 20 15V17.5C20 18.1875 19.7554 18.7763 19.2663 19.2663C18.7763 19.7554 18.1875 20 17.5 20H2.5ZM10.5773 14.4227C10.2585 14.7415 9.74153 14.7415 9.42269 14.4227L4.62514 9.62514C4.13935 9.13935 4.13246 8.35388 4.60965 7.85965C5.09883 7.353 5.9084 7.3459 6.40639 7.84389L8.75 10.1875V1.25C8.75 0.559644 9.30964 0 10 0C10.6904 0 11.25 0.559644 11.25 1.25V10.1875L13.5936 7.84389C14.0916 7.3459 14.9012 7.353 15.3903 7.85965C15.8675 8.35388 15.8607 9.13935 15.3749 9.62514L10.5773 14.4227Z" fill="#484848"/>
</svg>
