<svg width="19" height="19" viewBox="0 0 19 19" fill="none" xmlns="http://www.w3.org/2000/svg">
<path d="M1.85366 19C1.3439 19 0.907366 18.8186 0.544049 18.4557C0.181349 18.0934 0 17.6577 0 17.1486V4.18879C0 3.67966 0.181349 3.24365 0.544049 2.88078C0.907366 2.51852 1.3439 2.33739 1.85366 2.33739H10.1256L8.27195 4.18879H1.85366V17.1486H14.8293V10.715L16.6829 8.86358V17.1486C16.6829 17.6577 16.5016 18.0934 16.1389 18.4557C15.7756 18.8186 15.339 19 14.8293 19H1.85366ZM12.211 2.86967L13.5317 4.16565L7.41463 10.2753V11.5944H8.71219L14.8524 5.46163L16.1732 6.75761L9.5 13.4458H5.56098V9.51157L12.211 2.86967ZM16.1732 6.75761L12.211 2.86967L14.528 0.55542C14.8988 0.18514 15.343 0 15.8608 0C16.378 0 16.8142 0.18514 17.1695 0.55542L18.4671 1.87454C18.8224 2.22939 19 2.66139 19 3.17052C19 3.67966 18.8224 4.11165 18.4671 4.4665L16.1732 6.75761Z" fill="#2049B9"/>
</svg>
