<svg width="16" height="15" viewBox="0 0 16 15" fill="none" xmlns="http://www.w3.org/2000/svg">
<path d="M16 6.75C16 6.35218 15.8468 5.97064 15.574 5.68934C15.3012 5.40804 14.9312 5.25 14.5455 5.25H9.94909L10.6473 1.8225C10.6618 1.7475 10.6691 1.665 10.6691 1.5825C10.6691 1.275 10.5455 0.99 10.3491 0.7875L9.57818 0L4.79273 4.935C4.52364 5.2125 4.36364 5.5875 4.36364 6V13.5C4.36364 13.8978 4.51688 14.2794 4.78966 14.5607C5.06244 14.842 5.43241 15 5.81818 15H12.3636C12.9673 15 13.4836 14.625 13.7018 14.085L15.8982 8.7975C15.9636 8.625 16 8.445 16 8.25V6.75ZM0 15H2.90909V6H0V15Z" fill="#1E1E1E"/>
</svg>