<svg width="18" height="18" viewBox="0 0 18 18" fill="none" xmlns="http://www.w3.org/2000/svg">
<path d="M17 11C17.5523 11 18 11.4477 18 12V16C18 16.5304 17.7893 17.0391 17.4142 17.4142C17.0391 17.7893 16.5304 18 16 18H2C1.46957 18 0.960859 17.7893 0.585786 17.4142C0.210714 17.0391 0 16.5304 0 16V2C0 1.46957 0.210714 0.960859 0.585786 0.585786C0.960859 0.210714 1.46957 0 2 0H6C6.55228 0 7 0.447715 7 1C7 1.55228 6.55228 2 6 2H2V16H16V12C16 11.4477 16.4477 11 17 11Z" fill="white"/>
<path d="M18 5C18 4.44772 17.5523 4 17 4H14V1C14 0.447715 13.5523 0 13 0C12.4477 0 12 0.447715 12 1V4H9C8.44772 4 8 4.44772 8 5C8 5.55228 8.44772 6 9 6H12V9C12 9.55228 12.4477 10 13 10C13.5523 10 14 9.55228 14 9V6H17C17.5523 6 18 5.55228 18 5Z" fill="white"/>
</svg>
