<svg width="13" height="13" viewBox="0 0 13 13" fill="none" xmlns="http://www.w3.org/2000/svg">
<path d="M10.6 3.4L1.725 12.3C1.525 12.5 1.28733 12.6 1.012 12.6C0.737333 12.6 0.5 12.5 0.3 12.3C0.0999997 12.1 0 11.8623 0 11.587C0 11.3123 0.0999997 11.075 0.3 10.875L9.2 2H1.6C1.31667 2 1.079 1.90433 0.887 1.713C0.695667 1.521 0.6 1.28333 0.6 1C0.6 0.716667 0.695667 0.479 0.887 0.287C1.079 0.0956668 1.31667 0 1.6 0H11.6C11.8833 0 12.1207 0.0956668 12.312 0.287C12.504 0.479 12.6 0.716667 12.6 1V11C12.6 11.2833 12.504 11.5207 12.312 11.712C12.1207 11.904 11.8833 12 11.6 12C11.3167 12 11.0793 11.904 10.888 11.712C10.696 11.5207 10.6 11.2833 10.6 11V3.4Z" fill="#BCBCBC"/>
</svg>
